<svg height='300px' width='300px'  fill="#000000" xmlns="http://www.w3.org/2000/svg" xmlns:xlink="http://www.w3.org/1999/xlink" style="isolation:isolate;" viewBox="0 0 128 128" x="0px" y="0px"><g><path d=" M 6 8 C 6 7.47 6.21 6.96 6.59 6.59 C 6.96 6.21 7.47 6 8 6 C 8.53 6 9.04 6.21 9.41 6.59 C 9.79 6.96 10 7.47 10 8 L 10 12 C 10 12.53 9.79 13.04 9.41 13.41 C 9.04 13.79 8.53 14 8 14 C 7.47 14 6.96 13.79 6.59 13.41 C 6.21 13.04 6 12.53 6 12 L 6 8 Z " fill="#000000"></path><path d=" M 8 10 C 7.47 10 6.96 9.79 6.59 9.41 C 6.21 9.04 6 8.53 6 8 C 6 7.47 6.21 6.96 6.59 6.59 C 6.96 6.21 7.47 6 8 6 L 12 6 C 12.53 6 13.04 6.21 13.41 6.59 C 13.79 6.96 14 7.47 14 8 C 14 8.53 13.79 9.04 13.41 9.41 C 13.04 9.79 12.53 10 12 10 L 8 10 Z " fill="#000000"></path><path d=" M 122 120 C 122 120.53 121.79 121.04 121.41 121.41 C 121.04 121.79 120.53 122 120 122 C 119.47 122 118.96 121.79 118.59 121.41 C 118.21 121.04 118 120.53 118 120 L 118 116 C 118 115.47 118.21 114.96 118.59 114.59 C 118.96 114.21 119.47 114 120 114 C 120.53 114 121.04 114.21 121.41 114.59 C 121.79 114.96 122 115.47 122 116 L 122 120 Z " fill="#000000"></path><path d=" M 122 108 C 122 108.53 121.79 109.04 121.41 109.41 C 121.04 109.79 120.53 110 120 110 C 119.47 110 118.96 109.79 118.59 109.41 C 118.21 109.04 118 108.53 118 108 L 118 104 C 118 103.47 118.21 102.96 118.59 102.59 C 118.96 102.21 119.47 102 120 102 C 120.53 102 121.04 102.21 121.41 102.59 C 121.79 102.96 122 103.47 122 104 L 122 108 Z " fill="#000000"></path><path d=" M 122 96 C 122 96.53 121.79 97.04 121.41 97.41 C 121.04 97.79 120.53 98 120 98 C 119.47 98 118.96 97.79 118.59 97.41 C 118.21 97.04 118 96.53 118 96 L 118 92 C 118 91.47 118.21 90.96 118.59 90.59 C 118.96 90.21 119.47 90 120 90 C 120.53 90 121.04 90.21 121.41 90.59 C 121.79 90.96 122 91.47 122 92 L 122 96 Z " fill="#000000"></path><path d=" M 122 84 C 122 84.53 121.79 85.04 121.41 85.41 C 121.04 85.79 120.53 86 120 86 C 119.47 86 118.96 85.79 118.59 85.41 C 118.21 85.04 118 84.53 118 84 L 118 80 C 118 79.47 118.21 78.96 118.59 78.59 C 118.96 78.21 119.47 78 120 78 C 120.53 78 121.04 78.21 121.41 78.59 C 121.79 78.96 122 79.47 122 80 L 122 84 Z " fill="#000000"></path><path d=" M 122 72 C 122 72.53 121.79 73.04 121.41 73.41 C 121.04 73.79 120.53 74 120 74 C 119.47 74 118.96 73.79 118.59 73.41 C 118.21 73.04 118 72.53 118 72 L 118 68 C 118 67.47 118.21 66.96 118.59 66.59 C 118.96 66.21 119.47 66 120 66 C 120.53 66 121.04 66.21 121.41 66.59 C 121.79 66.96 122 67.47 122 68 L 122 72 Z " fill="#000000"></path><path d=" M 122 60 C 122 60.53 121.79 61.04 121.41 61.41 C 121.04 61.79 120.53 62 120 62 C 119.47 62 118.96 61.79 118.59 61.41 C 118.21 61.04 118 60.53 118 60 L 118 56 C 118 55.47 118.21 54.96 118.59 54.59 C 118.96 54.21 119.47 54 120 54 C 120.53 54 121.04 54.21 121.41 54.59 C 121.79 54.96 122 55.47 122 56 L 122 60 Z " fill="#000000"></path><path d=" M 122 48 C 122 48.53 121.79 49.04 121.41 49.41 C 121.04 49.79 120.53 50 120 50 C 119.47 50 118.96 49.79 118.59 49.41 C 118.21 49.04 118 48.53 118 48 L 118 44 C 118 43.47 118.21 42.96 118.59 42.59 C 118.96 42.21 119.47 42 120 42 C 120.53 42 121.04 42.21 121.41 42.59 C 121.79 42.96 122 43.47 122 44 L 122 48 Z " fill="#000000"></path><path d=" M 122 36 C 122 36.53 121.79 37.04 121.41 37.41 C 121.04 37.79 120.53 38 120 38 C 119.47 38 118.96 37.79 118.59 37.41 C 118.21 37.04 118 36.53 118 36 L 118 32 C 118 31.47 118.21 30.96 118.59 30.59 C 118.96 30.21 119.47 30 120 30 C 120.53 30 121.04 30.21 121.41 30.59 C 121.79 30.96 122 31.47 122 32 L 122 36 Z " fill="#000000"></path><path d=" M 108 118 C 108.53 118 109.04 118.21 109.41 118.59 C 109.79 118.96 110 119.47 110 120 C 110 120.53 109.79 121.04 109.41 121.41 C 109.04 121.79 108.53 122 108 122 L 104 122 C 103.47 122 102.96 121.79 102.59 121.41 C 102.21 121.04 102 120.53 102 120 C 102 119.47 102.21 118.96 102.59 118.59 C 102.96 118.21 103.47 118 104 118 L 108 118 Z " fill="#000000"></path><path d=" M 96 118 C 96.53 118 97.04 118.21 97.41 118.59 C 97.79 118.96 98 119.47 98 120 C 98 120.53 97.79 121.04 97.41 121.41 C 97.04 121.79 96.53 122 96 122 L 92 122 C 91.47 122 90.96 121.79 90.59 121.41 C 90.21 121.04 90 120.53 90 120 C 90 119.47 90.21 118.96 90.59 118.59 C 90.96 118.21 91.47 118 92 118 L 96 118 Z " fill="#000000"></path><path d=" M 84 118 C 84.53 118 85.04 118.21 85.41 118.59 C 85.79 118.96 86 119.47 86 120 C 86 120.53 85.79 121.04 85.41 121.41 C 85.04 121.79 84.53 122 84 122 L 80 122 C 79.47 122 78.96 121.79 78.59 121.41 C 78.21 121.04 78 120.53 78 120 C 78 119.47 78.21 118.96 78.59 118.59 C 78.96 118.21 79.47 118 80 118 L 84 118 Z " fill="#000000"></path><path d=" M 72 118 C 72.53 118 73.04 118.21 73.41 118.59 C 73.79 118.96 74 119.47 74 120 C 74 120.53 73.79 121.04 73.41 121.41 C 73.04 121.79 72.53 122 72 122 L 68 122 C 67.47 122 66.96 121.79 66.59 121.41 C 66.21 121.04 66 120.53 66 120 C 66 119.47 66.21 118.96 66.59 118.59 C 66.96 118.21 67.47 118 68 118 L 72 118 Z " fill="#000000"></path><path d=" M 60 118 C 60.53 118 61.04 118.21 61.41 118.59 C 61.79 118.96 62 119.47 62 120 C 62 120.53 61.79 121.04 61.41 121.41 C 61.04 121.79 60.53 122 60 122 L 56 122 C 55.47 122 54.96 121.79 54.59 121.41 C 54.21 121.04 54 120.53 54 120 C 54 119.47 54.21 118.96 54.59 118.59 C 54.96 118.21 55.47 118 56 118 L 60 118 Z " fill="#000000"></path><path d=" M 48 118 C 48.53 118 49.04 118.21 49.41 118.59 C 49.79 118.96 50 119.47 50 120 C 50 120.53 49.79 121.04 49.41 121.41 C 49.04 121.79 48.53 122 48 122 L 44 122 C 43.47 122 42.96 121.79 42.59 121.41 C 42.21 121.04 42 120.53 42 120 C 42 119.47 42.21 118.96 42.59 118.59 C 42.96 118.21 43.47 118 44 118 L 48 118 Z " fill="#000000"></path><path d=" M 36 118 C 36.53 118 37.04 118.21 37.41 118.59 C 37.79 118.96 38 119.47 38 120 C 38 120.53 37.79 121.04 37.41 121.41 C 37.04 121.79 36.53 122 36 122 L 32 122 C 31.47 122 30.96 121.79 30.59 121.41 C 30.21 121.04 30 120.53 30 120 C 30 119.47 30.21 118.96 30.59 118.59 C 30.96 118.21 31.47 118 32 118 L 36 118 Z " fill="#000000"></path><path d=" M 120 118 C 120.53 118 121.04 118.21 121.41 118.59 C 121.79 118.96 122 119.47 122 120 C 122 120.53 121.79 121.04 121.41 121.41 C 121.04 121.79 120.53 122 120 122 L 116 122 C 115.47 122 114.96 121.79 114.59 121.41 C 114.21 121.04 114 120.53 114 120 C 114 119.47 114.21 118.96 114.59 118.59 C 114.96 118.21 115.47 118 116 118 L 120 118 Z " fill="#000000"></path><path d=" M 109 11.125 Q 113.25 6.875 117 11.125 Q 121 15.125 117 19.125 C 113 23.125 22.25 113.75 18 118 Q 13.75 122.25 10 118 Q 6 114 10 110 C 14 106 104.75 15.375 109 11.125 Z " fill="#000000"></path><path d=" M 112 38 C 112.53 38 113.04 38.21 113.41 38.59 C 113.79 38.96 114 39.47 114 40 C 114 40.53 113.79 41.04 113.41 41.41 C 113.04 41.79 112.53 42 112 42 L 108 42 C 107.47 42 106.96 41.79 106.59 41.41 C 106.21 41.04 106 40.53 106 40 C 106 39.47 106.21 38.96 106.59 38.59 C 106.96 38.21 107.47 38 108 38 L 112 38 Z " fill="#000000"></path><path d=" M 50 58 L 66 42 L 8 42 L 8 42 L 8 100 L 26 82 L 26 82 L 26 60 L 26 60 C 26 59.47 26.21 58.96 26.59 58.59 L 26.59 58.59 C 26.96 58.21 27.47 58 28 58 L 28 58 L 50 58 Z  M 46 62 L 30 78 L 30 62 L 46 62 Z  M 8 38 L 8 20 L 20 20 L 20 8 L 100 8 L 70 38 L 8 38 L 8 38 L 8 38 Z " fill-rule="evenodd" fill="#000000"></path><path d=" M 48 98 C 48.53 98 49.04 98.21 49.41 98.59 C 49.79 98.96 50 99.47 50 100 C 50 100.53 49.79 101.04 49.41 101.41 C 49.04 101.79 48.53 102 48 102 L 44 102 C 43.47 102 42.96 101.79 42.59 101.41 C 42.21 101.04 42 100.53 42 100 C 42 99.47 42.21 98.96 42.59 98.59 C 42.96 98.21 43.47 98 44 98 L 48 98 Z " fill="#000000"></path><path d=" M 60 98 C 60.53 98 61.04 98.21 61.41 98.59 C 61.79 98.96 62 99.47 62 100 C 62 100.53 61.79 101.04 61.41 101.41 C 61.04 101.79 60.53 102 60 102 L 56 102 C 55.47 102 54.96 101.79 54.59 101.41 C 54.21 101.04 54 100.53 54 100 C 54 99.47 54.21 98.96 54.59 98.59 C 54.96 98.21 55.47 98 56 98 L 60 98 Z " fill="#000000"></path><path d=" M 72 98 C 72.53 98 73.04 98.21 73.41 98.59 C 73.79 98.96 74 99.47 74 100 C 74 100.53 73.79 101.04 73.41 101.41 C 73.04 101.79 72.53 102 72 102 L 68 102 C 67.47 102 66.96 101.79 66.59 101.41 C 66.21 101.04 66 100.53 66 100 C 66 99.47 66.21 98.96 66.59 98.59 C 66.96 98.21 67.47 98 68 98 L 72 98 Z " fill="#000000"></path><path d=" M 84 98 C 84.53 98 85.04 98.21 85.41 98.59 C 85.79 98.96 86 99.47 86 100 C 86 100.53 85.79 101.04 85.41 101.41 C 85.04 101.79 84.53 102 84 102 L 80 102 C 79.47 102 78.96 101.79 78.59 101.41 C 78.21 101.04 78 100.53 78 100 C 78 99.47 78.21 98.96 78.59 98.59 C 78.96 98.21 79.47 98 80 98 L 84 98 Z " fill="#000000"></path><path d=" M 96 98 C 96.53 98 97.04 98.21 97.41 98.59 C 97.79 98.96 98 99.47 98 100 C 98 100.53 97.79 101.04 97.41 101.41 C 97.04 101.79 96.53 102 96 102 L 92 102 C 91.47 102 90.96 101.79 90.59 101.41 C 90.21 101.04 90 100.53 90 100 C 90 99.47 90.21 98.96 90.59 98.59 C 90.96 98.21 91.47 98 92 98 L 96 98 Z " fill="#000000"></path><path d=" M 102 96 C 102 96.53 101.79 97.04 101.41 97.41 C 101.04 97.79 100.53 98 100 98 C 99.47 98 98.96 97.79 98.59 97.41 C 98.21 97.04 98 96.53 98 96 L 98 92 C 98 91.47 98.21 90.96 98.59 90.59 C 98.96 90.21 99.47 90 100 90 C 100.53 90 101.04 90.21 101.41 90.59 C 101.79 90.96 102 91.47 102 92 L 102 96 Z " fill="#000000"></path><path d=" M 102 84 C 102 84.53 101.79 85.04 101.41 85.41 C 101.04 85.79 100.53 86 100 86 C 99.47 86 98.96 85.79 98.59 85.41 C 98.21 85.04 98 84.53 98 84 L 98 80 C 98 79.47 98.21 78.96 98.59 78.59 C 98.96 78.21 99.47 78 100 78 C 100.53 78 101.04 78.21 101.41 78.59 C 101.79 78.96 102 79.47 102 80 L 102 84 Z " fill="#000000"></path><path d=" M 102 72 C 102 72.53 101.79 73.04 101.41 73.41 C 101.04 73.79 100.53 74 100 74 C 99.47 74 98.96 73.79 98.59 73.41 C 98.21 73.04 98 72.53 98 72 L 98 68 C 98 67.47 98.21 66.96 98.59 66.59 C 98.96 66.21 99.47 66 100 66 C 100.53 66 101.04 66.21 101.41 66.59 C 101.79 66.96 102 67.47 102 68 L 102 72 Z " fill="#000000"></path><path d=" M 100 58 C 100.53 58 101.04 58.21 101.41 58.59 C 101.79 58.96 102 59.47 102 60 C 102 60.53 101.79 61.04 101.41 61.41 C 101.04 61.79 100.53 62 100 62 L 96 62 C 95.47 62 94.96 61.79 94.59 61.41 C 94.21 61.04 94 60.53 94 60 C 94 59.47 94.21 58.96 94.59 58.59 C 94.96 58.21 95.47 58 96 58 L 100 58 Z " fill="#000000"></path><path d=" M 88 58 C 88.53 58 89.04 58.21 89.41 58.59 C 89.79 58.96 90 59.47 90 60 C 90 60.53 89.79 61.04 89.41 61.41 C 89.04 61.79 88.53 62 88 62 L 84 62 C 83.47 62 82.96 61.79 82.59 61.41 C 82.21 61.04 82 60.53 82 60 C 82 59.47 82.21 58.96 82.59 58.59 C 82.96 58.21 83.47 58 84 58 L 88 58 Z " fill="#000000"></path></g></svg>